<svg aria-hidden="true" style="position: absolute; width: 0; height: 0; overflow: hidden;" version="1.1" xmlns="http://www.w3.org/2000/svg" xmlns:xlink="http://www.w3.org/1999/xlink">
<defs>
<symbol id="icon-Favicon" viewBox="0 0 32 32">
<path fill="#1c1d20" style="fill: var(--color1, #1c1d20)" d="M6.667 0h18.667c3.682 0 6.667 2.985 6.667 6.667v18.667c0 3.682-2.985 6.667-6.667 6.667h-18.667c-3.682 0-6.667-2.985-6.667-6.667v-18.667c0-3.682 2.985-6.667 6.667-6.667z"></path>
<path fill="#fafafa" style="fill: var(--color2, #fafafa)" d="M24.48 15.368l0.083-1.748-1.527 0.951-0.474-0.786 1.622-0.797-1.622-0.797 0.474-0.797 1.527 0.951-0.083-1.748h0.935l-0.083 1.748 1.528-0.951 0.474 0.797-1.622 0.797 1.622 0.797-0.474 0.786-1.528-0.951 0.083 1.748h-0.935z"></path>
<path fill="#fafafa" style="fill: var(--color2, #fafafa)" d="M21.034 12.535v1.004h-3.841v-1.004h3.841zM18.24 18.947v-7.158c0-0.398 0.093-0.728 0.28-0.992 0.191-0.268 0.438-0.467 0.743-0.597 0.308-0.134 0.639-0.201 0.992-0.201 0.272 0 0.503 0.021 0.694 0.063s0.331 0.078 0.42 0.109l-0.316 1.009c-0.061-0.019-0.14-0.040-0.237-0.063-0.093-0.023-0.211-0.034-0.353-0.034-0.321 0-0.552 0.076-0.694 0.229-0.142 0.149-0.213 0.367-0.213 0.654v6.98h-1.315z"></path>
<path fill="#fafafa" style="fill: var(--color2, #fafafa)" d="M17.455 12.535v1.004h-3.841v-1.004h3.841zM14.661 18.947v-7.158c0-0.398 0.093-0.728 0.28-0.992 0.191-0.268 0.438-0.467 0.743-0.597 0.308-0.134 0.639-0.201 0.992-0.201 0.272 0 0.503 0.021 0.694 0.063s0.331 0.078 0.42 0.109l-0.317 1.009c-0.061-0.019-0.14-0.040-0.237-0.063-0.093-0.023-0.211-0.034-0.353-0.034-0.321 0-0.552 0.076-0.694 0.229-0.142 0.149-0.213 0.367-0.213 0.654v6.98h-1.315z"></path>
<path fill="#fafafa" style="fill: var(--color2, #fafafa)" d="M10.791 18.947c-0.644 0-1.202-0.134-1.674-0.403s-0.835-0.648-1.090-1.136c-0.252-0.492-0.377-1.066-0.377-1.721 0-0.651 0.124-1.225 0.371-1.721 0.252-0.496 0.603-0.882 1.055-1.159 0.456-0.28 0.99-0.42 1.603-0.42 0.373 0 0.735 0.059 1.085 0.176s0.664 0.303 0.943 0.557c0.279 0.254 0.499 0.583 0.66 0.988 0.165 0.405 0.248 0.894 0.248 1.466v0.443h-5.24v-0.926h4.58l-0.595 0.307c0-0.39-0.063-0.735-0.189-1.034s-0.314-0.532-0.566-0.699c-0.248-0.17-0.556-0.256-0.925-0.256s-0.686 0.085-0.949 0.256c-0.259 0.17-0.458 0.396-0.595 0.676s-0.206 0.587-0.206 0.92v0.631c0 0.436 0.079 0.805 0.236 1.108s0.375 0.534 0.654 0.693c0.283 0.159 0.611 0.239 0.984 0.239 0.244 0 0.464-0.034 0.66-0.102 0.2-0.068 0.373-0.17 0.519-0.307s0.255-0.305 0.33-0.506l1.214 0.222c-0.098 0.341-0.271 0.64-0.519 0.898s-0.56 0.458-0.937 0.602c-0.373 0.14-0.8 0.21-1.279 0.21z"></path>
<path fill="#fafafa" style="fill: var(--color2, #fafafa)" d="M5.686 12.483h1.21v6.862c0.004 0.43-0.071 0.793-0.224 1.089s-0.377 0.519-0.672 0.668c-0.295 0.154-0.657 0.23-1.087 0.23h-0.246v-1.077h0.196c0.291 0 0.5-0.079 0.627-0.236s0.192-0.384 0.196-0.68v-6.856zM6.285 11.492c-0.213 0-0.394-0.073-0.543-0.219s-0.224-0.321-0.224-0.524c0-0.207 0.075-0.384 0.224-0.53s0.33-0.219 0.543-0.219c0.209 0 0.388 0.073 0.538 0.219 0.153 0.146 0.23 0.323 0.23 0.53 0 0.204-0.077 0.378-0.23 0.524-0.149 0.146-0.329 0.219-0.538 0.219z"></path>
</symbol>
</defs>
</svg>
